<svg width="150" height="153" viewBox="0 0 150 153" fill="none" xmlns="http://www.w3.org/2000/svg">
<g clip-path="url(#clip0_313:2)">
<path d="M0.0231083 77.9085C0.363514 98.4152 8.15944 116.081 23.4109 130.907C38.6623 145.732 56.2009 152.977 76.0268 152.642C91.7881 152.475 106.108 147.812 118.988 138.652C131.867 129.492 141.018 117.121 146.44 101.539H125.852C117.188 119.911 103.457 130.319 84.6582 132.76V83.2384H104.614V65.4441L0.911441 63.812C0.199994 68.4754 -0.0972855 73.1927 0.0231083 77.9085V77.9085ZM65.3413 83.2478V132.415C55.3188 130.645 46.3408 126.287 38.4073 119.342C27.561 109.861 21.3762 97.8293 19.8529 83.2478H65.3413Z" fill="#1E1E1E"/>
<path d="M129.41 24.0196C115.174 9.27641 98.3967 1.31107 79.079 0.123539C57.5557 -1.05933 38.8723 6.18555 23.0286 21.8582C14.2371 30.5626 7.96295 40.1881 4.20605 50.7344H24.7237C28.2148 43.5517 33.1584 37.3583 39.5547 32.1543C49.9798 23.6815 62.1388 19.529 76.0317 19.6969C89.9246 19.8648 101.872 24.1439 111.875 32.5344C121.872 40.9279 128.227 51.901 130.94 65.4535H118.349V83.2478H150.005V72.8258C150.002 54.8667 143.137 38.5979 129.41 24.0196Z" fill="#1E1E1E"/>
</g>
<defs>
<clipPath id="clip0_313:2">
<rect width="150" height="152.653" fill="white"/>
</clipPath>
</defs>
</svg>
