<svg height="61" viewBox="0 0 200 61" width="200" xmlns="http://www.w3.org/2000/svg"><g><path d="m106.336271 22.9234433-.064446-.0638941c-.386677-.3194706-.837801-.4472589-1.35337-.511153-.451124 0-.902248 0-1.353371.0638941-.451124.0638942-.902247.1277883-1.417817.2555765.128892-.1916823.322231-.3833647.451123-.511153.451124-.511153.902248-1.022306 1.288925-1.5973531.386677-.5750472.773355-1.2139885 1.095586-1.8529297.322231-.7028354.51557-1.4695649.644462-2.3001886v-.0638941-.0638941c-.128892-.8306237-.644462-1.4056708-1.482263-1.5334591-.708909-.1277882-1.417817 0-2.126726.2555765-1.224478.5750472-2.3200637 1.4056708-3.2223108 2.3640827-.9022472.9584119-1.5467095 1.9807179-1.9333868 2.9391298-.3866774 1.0223061-.4511236 1.980718-.1933387 2.8113416.1933387.7028354.7089085 1.1500943 1.4822632 1.4695649-1.1600321 1.1500943-2.3845103 2.1724004-3.6089886 3.1308123-1.4822632 1.1500942-3.157865 2.1724003-4.9623593 3.066918-.7089085.3833648-1.4822632.7028354-2.2556179.9584119-.7089085.2555766-1.5467094.3833648-2.3845104.3194707-.1288924-.0638941-.3222311-.0638941-.4511235-.0638941-.1933387 0-.3222312-.0638942-.3866774-.2555766-.1288924-.1916823-.1933387-.4472588-.2577849-.7028353-.0644462-.2555766-.0644462-.5750472 0-.8945178 0-.1277883 0-.1916824.0644462-.3194707.1933387.0638942.3866774.1277883.6444623.1277883.580016-.0638941 1.160032-.2555765 1.7400481-.5750471.5155698-.3194707.9666934-.6389413 1.3533707-1.0223061.3866774-.3833647.7089085-.8306236.9666934-1.2778825.2577849-.511153.3222311-.9584119.2577849-1.3417767-.1288925-.7667295-.580016-1.2778825-1.2889245-1.3417766-.580016-.0638942-1.1600321 0-1.6756019.2555765-.7733547.3194706-1.3533707.8306236-1.8044943 1.3417766-.4511236.5111531-.8378009 1.0862002-1.2889245 1.5973532l-.0644462.0638941c-.0644462.1916824-.1288925.3833648-.1933387.5750472-.6444622.7028354-1.160032 1.3417766-1.7400481 1.9168238-.9022471 1.022306-1.9333867 2.044612-2.9645263 3.0669181-1.0311396 1.022306-2.1267255 2.044612-3.2223113 3.0030239s-2.1911716 1.8529297-3.2867575 2.7474475c-.4511235.4472589-1.0955858.8945178-1.8044943 1.4056708-.6444622.4472589-1.2889245.5750471-1.9333867.511153-.580016-.4472589-.9022472-1.1500943-.9666934-2.1085062-.1288924-1.0862002-.1288924-2.1724003 0-3.3224946.1288925-1.022306.3222311-2.0446121.580016-3.0669181.2577849-.9584119.5155698-1.8529297.7089085-2.7474474 1.2889245-.9584119 2.5134028-2.0446121 3.6089886-3.1947064 1.1600321-1.2139884 2.2556179-2.3640827 3.4156499-3.5780711 1.6111557-1.7890355 2.9000802-3.3224946 3.7378811-4.4725889.8378009-1.0862001 1.6111556-2.044612 2.3845103-2.9391298.6444623 0 1.6111557 0 2.7711877-.0638941 1.3533707-.0638941 2.7711877-.0638941 4.2534509 0 1.4822632 0 2.8356339.0638941 4.1245584.1916824 1.160032.1277882 2.0622792.3194706 2.577849.511153.1288924.1277882.3222311.3194706.5155698.5750471.4511236.6389413 1.0311396.6389413 1.2244783.5750472.4511235-.0638942.7733547-.3833648.7733547-.7667296 0-.2555765 0-.5750471-.1933387-.8306236-.1288925-.2555765-.2577849-.4472589-.4511236-.6389413s-.1933387-.2555765-.1933387-.2555765l-.0644462-.1277882-.0644462-.0638942c-.580016-.4472589-1.6111556-.7667295-3.0289726-.8945177-1.3533707-.1277883-2.8356339-.2555765-4.3178971-.2555765-1.5467094-.0638942-3.0289726 0-4.4467895 0-.8378009.0638941-1.5467094.0638941-2.1267254.1277882.1933386-.2555765.3866773-.5750471.580016-.8306236.3866773-.5750472.7733547-1.1500943 1.2244783-1.8529297.3866773-.6389413.7733547-1.27788256 1.0955858-1.91682382.3866773-.7028354.6444622-1.46956492.7089085-2.30018857.0644462-.76672952-.0644463-1.34177666-.4511236-1.78903555-.3222311-.38336476-.8378009-.57504714-1.4822632-.57504714-.7733547 0-1.5467094.19168238-2.1911716.63894127-.5800161.38336476-1.1600321.76672952-1.6756019 1.08620015-1.5467094 1.15009428-2.9645263 2.49187095-4.1890046 4.08922416-1.1600321 1.4695649-2.2556179 2.8752357-3.2223113 4.2170123-2.1267254.1277883-4.1890046.3833648-6.31573.6389413-1.8689406.2555765-3.8023273.3833648-5.6712679.511153 0-.1916824-.0644462-.3833647-.2577849-.511153l-.0644462-.0638941-.1933387.2555765c-.2577849-.0638941-.580016-.1277883-.9666933-.1916824-.3866774-.0638941-.7733547-.0638941-1.0955859 0-.3866773.0638941-.7089084.1277883-1.0311396.3194706-.3866773.2555765-.580016.5750472-.580016 1.0223061 0 .7667295.3866774 1.0862001.7089085 1.2778825s.7733547.3194706 1.2244783.3833648h.0644462.0644462c2.4489566-.1277883 4.8334669-.3833648 7.0246386-.7028354 1.8689405-.3194707 3.8667735-.5750472 5.9290527-.7667296-.9666934 1.6612473-1.9333868 3.4502829-2.7711877 5.2393184-.9666934 1.980718-1.8044943 4.1531183-2.5134028 6.4533068-.0644462 0-.1933387.0638942-.2577849.0638942-.1288924.0638941-.1933387.1277882-.2577849.1916824-1.8689405.8945177-3.7378811 1.7890355-5.4779291 2.6835533-1.7400481.8945178-3.4800962 1.8529297-5.0912518 2.8113416-.1288925-.2555765-.3222311-.4472589-.4511236-.7028354-.1933387-.3833648-.5155698-.7028354-.8378009-.9584119-.0644463-.1916824-.2577849-.3833648-.4511236-.5750472l-.5155698-.511153c-.1288925-.1277882-.3222311-.3194706-.4511236-.4472589-.1288924-.1277882-.1288924-.1916824-.1288924-.2555765 0-.1277882.0644462-.1916824.1933386-.3194706.2577849-.2555765.4511236-.4472589.6444623-.6389413.2577849-.1916824.4511236-.3833647.6444622-.5750471l.5800161-.5750472c.4511236-.4472589.8378009-.8945177 1.2244783-1.3417766.3866773-.511153.6444622-1.1500943.7089084-1.9168238v-.5111531h-.2577849c-.1933386-.2555765-.3866773-.511153-.7089084-.6389412-.3222312-.1277883-.7089085-.1916824-1.1600321-.1916824-.9022472.0638941-1.6756019.3833648-2.4489566.8306236-.6444622.3833648-1.2889245.7667296-1.8689405 1.0862002-.3222311.1916824-.6444622.3833648-.9022471.5750471-.3222312.1916824-.5800161.3833648-.9022472.5750472-.1933387.1277882-.3866773.2555765-.6444622.4472589s-.4511236.4472589-.6444623.7028354c-.0644462.1277882-.1288924.1916823-.1933387.3194706-.1933386.1277883-.3222311.2555765-.5155698.3194706-1.740048 1.0223061-3.6089886 1.980718-5.4779291 2.8113416-1.8044943.7667295-3.5445424 1.6612473-5.2845905 2.5557651-.3866773-.4472589-.8378009-.8945178-1.2244782-1.3417767-.4511236-.4472589-.7733547-1.022306-.9022472-1.7890355 0-.4472589.0644462-.8945178.1933387-1.1500943.1288924-.3194706.3222311-.6389413.5155698-.8945178s.4511236-.511153.7733547-.7667295.580016-.4472589.8378009-.7028354c.5155698-.2555765 1.0311396-.5750471 1.5467094-.8945178.1933387-.1277882.4511236-.2555765.7089085-.3194706-.0644462.0638941-.0644462.1277882-.1288925.1277882-.2577849.2555766-.5155698.4472589-.8378009.6389413-.1933387.1277883-.3866773.1916824-.580016.3194706-.4511236.1916824-.6444623.5750472-.580016 1.0862002v.1277883c.1933386.511153.4511235.7667295.8378009.8306236.3222311.0638941.6444622 0 .9666934-.1916824.2577849-.1277882.5155698-.3194706.7733547-.511153s.4511235-.3833648.5155698-.4472589c.3866773-.3194706.7089084-.7028354 1.0311396-1.022306.3866773-.4472589.580016-1.0862002.580016-1.9168238v-.1277883c-.1288925-.4472589-.4511236-.8306236-.8378009-1.0862001l-.0644463-.0638941c-.2577849-.1277883-.6444622-.1277883-1.2889245-.1277883h-.1288924c-1.2889245.3194706-2.5134028.8945178-3.8023273 1.7251414-1.2889245.8306237-2.2556179 1.9168238-2.7711877 3.0669181-.3866773.8945178-.5155698 1.8529297-.2577849 2.8113416.1933387.8945178.580016 1.6612473 1.0955858 2.2362944.1933387.3194707.5155699.6389413.837801.9584119.1288924.1277883.1933387.1916824.3222311.3194707-1.2889245.6389412-2.6422952 1.4056708-3.995666 2.2362944-1.6111556.9584119-2.9645263 2.0446121-4.0601121 3.2586005-.5155698.5750471-1.0955859 1.2778825-1.5467094 2.1085062-.5800161.8945177-.6444623 1.9807179-.3222312 3.1308122v.0638941c.1288925.1916824.2577849.3833648.3866774.511153l.3866773.3833648c.5800161.4472589 1.417817.7667295 2.3845104.8306236.9666933.1277883 1.9978329.0638941 3.0934188-.0638941 1.0955858-.1916824 2.1911716-.4472589 3.2867575-.8945178 1.0955858-.3833647 2.0622792-.9584119 2.9645263-1.5973532.8378009-.6389412 1.6111556-1.4056707 2.1267254-2.2362944.5800161-.8945178.837801-1.8529297.7733547-2.9391298-.0644462-1.2139884-.4511235-2.2362945-1.0311396-3.003024-.4511235-.5750471-.8378009-1.0862001-1.2244782-1.5973532 1.6756018-.8306236 3.3512037-1.5973531 5.0268055-2.3640826 1.9333868-.8306237 3.7378811-1.7890356 5.4779292-2.8752358.1288924-.0638941.1933386-.1277882.3222311-.1916823h.0644462.1288925c.7089084-.0638942 1.0311396-.4472589 1.2244782-.7028354.0644463-.1916824.2577849-.2555765.4511236-.3194707l.1288925-.0638941.0644462-.0638941c.3222311-.3194707.6444622-.5750472 1.0311396-.8306237.3866773-.2555765.8378009-.511153 1.2889245-.7667295s.8378009-.4472589 1.3533707-.6389413c.0644462 0 .0644462-.0638941.1288925-.0638941-.3222312.3833648-.7089085.7667295-1.1600321 1.2139884-.3222311.3194707-.7089085.7028354-1.0955858 1.0862002-.580016.511153-.8378009 1.0862001-.8378009 1.8529297.0644462.7028354.3222311 1.2778825.8378009 1.6612473.3222311.2555765.6444622.5750471.9022471.9584119l.0644463.0638941c.3222311.3194706.6444622.6389413.9022471 1.022306.1933387.1916824.3222311.4472589.5155698.7028354-3.157865 1.9168238-6.2512838 3.9614359-9.2158102 5.9421538-3.157865 2.1085062-6.0579451 4.536483-8.7002404 7.2200363l-.5155698.6389413c-.1288924 0-.2577849 0-.3866773 0-1.9333868.2555765-3.8667735.4472589-5.9290527.7667295-2.0622792.3194707-4.1890047.8306237-6.4446225 1.4056708-2.1911717.5750472-4.3823434 1.2139884-6.4446226 1.7890356-2.0622792.6389412-3.9956659 1.2139884-5.8001602 1.7890355-1.80449433.5750472-3.22231128 1.022306-4.38234334 1.4056708-.64446225.2555765-1.2889245.511153-1.99783298.7028354-.58001602.1916824-1.16003205.2555765-1.74004808.1277883 0 0-.06444622-.0638942-.06444622-.0638942-.12889245-.511153-.12889245-.9584119-.06444623-1.4695649.12889245-.6389413.32223113-1.2139884.51556981-1.7890355.38667735-1.2139884 1.0311396-2.8113416 1.86894052-4.6642713.83780093-1.8529297 1.80449431-3.8336476 2.83563391-5.8782597.96669338-1.9807179 1.99783298-4.02533 3.02897261-6.0060479 1.0311396-1.9168238 1.8689405-3.514177 2.6422952-4.9198478 1.997833-.3833647 4.0601122-.7667295 6.1223914-1.0862001 2.1911716-.3194706 4.3823433-.6389413 6.5090687-.9584119.1933387-.0638941.5155698-.0638941.7733547-.0638941.5800161 0 .9666934-.2555765 1.1600321-.7667296l.0644462-.2555765-.1288924-.1916823c-.3222312-.4472589-.7733547-.6389413-1.2244783-.5111531-.2577849.0638942-.5155698.0638942-.7733547.0638942-2.1267254.2555765-4.2534509.511153-6.3157301.8306236-1.6756018.2555765-3.4156499.511153-5.0268055.7667295 2.0622792-3.7697534 4.1890046-7.4756128 6.3801762-11.0536839 2.3200642-3.7697535 4.7690207-7.539507 7.2824235-11.18147219 2.4489565-.31947064 5.155698-.57504715 8.0557781-.76672953 2.9645264-.19168238 5.993499-.2555765 8.9580253-.2555765.9666934 0 1.997833 0 2.9645264.06389412.9022471.06389413 1.7400481.19168238 2.4489565.44725889.1288925.06389413.3222312.12778825.4511236.25557651.1933387.12778825.6444623.44725889 1.2889245 0l.1933387-.12778826.0644462-.19168238c.0644462-.19168238-.1288924-.57504714-.5155698-.76672952-.1933387-.06389412-.3866773-.12778825-.5155698-.25557651-.6444622-.31947063-1.3533707-.51115301-2.1267254-.57504714-.7089085-.06389412-1.4822632-.12778825-2.2556179-.19168238-3.157865-.2555765-6.3801763-.2555765-9.6024875 0-2.9000802.19168238-5.6712679.44725889-8.3135631.63894127.1288925-.19168238.2577849-.44725889.3866774-.63894127.4511235-.44725888.580016-1.15009428.5155698-1.98071793l-.0644463-.19168238c-.1933386-.38336476-.7089084-.89451777-1.8689405-.76672952h-.0644462c-.580016.12778825-.8378009.44725889-.9666934.70283539l-.0644462.12778826v.12778825.38336476c0 .19168238 0 .44725889.0644462.63894127s.1933387.31947063.3866774.44725889c-.1288925.19168238-.1933387.38336476-.3222312.57504714-.1933386.31947063-.3866773.63894127-.6444622.89451778-1.4822632.19168238-2.9645264.44725888-4.5112358.76672952-1.6111556.31947063-3.157865.70283539-4.575682 1.08620015l-.0644462.06389413c-.0644462.06389413-.2577849.12778825-.580016.19168238s-.6444623.12778825-.9022472.19168238c-.3222311.12778825-.580016.25557651-.8378009.38336476-.3222311.25557651-.5155698.57504714-.4511236.9584119 0 .38336476.2577849.70283536.6444623.83062366.2577849.0638941.5155698.1277882.8378009.0638941.2577849 0 .580016-.0638941.8378009-.1916824.2577849-.0638941.4511236-.1277882.5800161-.1916823l2.6422952-.51115306h.0644462l.0644462-.06389412h.1288925c.4511236.12778825.7089085.06389412.9022471-.06389413.2577849-.06389413.3222312-.19168238.3866774-.31947063.0644462-.06389413.0644462-.19168238.0644462-.38336476.6444623-.12778826 1.3533708-.31947064 1.997833-.44725889.4511236-.06389413.8378009-.19168238 1.2889245-.25557651-2.3200641 3.4502828-4.575682 6.9644598-6.6379612 10.5425309-2.2556179 3.7697535-4.5112357 7.7311894-6.6379612 11.6287311-1.3533707.1916824-2.51340275.4472589-3.35120368.5750471-.90224715.1916824-1.54670941.3194707-2.06227921.4472589-.45112357.1277883-.83780092.1916824-1.0311396.2555765-.38667735.0638942-.7733547.0638942-1.22447828 0-.2577849 0-.5155698 0-.70890847 0-.2577849 0-.5155698.1277883-.7733547.2555765-.25778491.3194707-.38667736.6389413-.38667736 1.0862002v.0638941c.12889245.7028354.64446226 1.0862002 1.28892451 1.0223061.45112357-.0638942.90224715-.1277883 1.22447827-.1916824 1.16003206-.2555765 2.32006411-.511153 3.48009616-.7667295.83780093-.1916824 1.61115563-.3194707 2.44895656-.5111531-1.35337073 2.6835534-2.77118768 5.3032126-4.06011219 7.9228718-1.41781695 2.8752357-2.90008013 5.9421538-4.18900463 9.072966-.45112358 1.022306-.90224715 2.1724003-1.2889245 3.2586004-.45112358 1.1500943-.64446225 2.4279769-.70890848 3.8336477v.0638941.0638941c.19333868 1.022306.7733547 1.4056708 1.22447828 1.5973532.58001602.1916824 1.22447828.2555765 1.86894053.1916824.64446225-.0638942 1.2889245-.1916824 1.93338675-.3833648.58001603-.1916824 1.09558583-.3833648 1.54670941-.511153l11.72921293-3.7697535c3.9312198-1.2778825 8.1202244-2.2362944 12.5670139-2.8752357.9022472-.1277883 1.8689406-.2555765 2.9000802-.3194706-.1933387.2555765-.3866774.511153-.5155698.7667295-.3866774.5750471-.7089085 1.2139884-.9666934 1.8529297-.2577849.7028354-.4511236 1.4695649-.5155698 2.2362944-.1288925 1.533459.2577849 2.7474475 1.2889245 3.5780711.9022472.7667295 2.1911717 1.2139884 3.6734348 1.2778825h.3866774c1.3533707 0 2.8356339-.2555765 4.5112357-.8306236 1.8044944-.5750472 3.6089887-1.4695649 5.413483-2.6835533s3.4800961-2.6835534 5.0912517-4.4725889c1.6111557-1.7890356 2.9645264-3.8336476 3.9312198-6.1338362.3866773-.7667295.6444622-1.6612473.8378009-2.6196592s.2577849-1.9807179.1933387-3.0030239c0-1.0223061-.1288925-1.980718-.3222311-2.9391299-.1933387-.7667295-.4511236-1.4695649-.7089085-2.044612 1.6756018-.9584119 3.3512037-1.9168238 5.0268055-2.8113416 1.4822632-.7667295 2.9645264-1.5334591 4.4467896-2.3001886-.1933387.6389413-.3866774 1.4056708-.5155698 2.1724003-.1933387 1.0223061-.3866774 2.1085062-.4511236 3.1947064-.0644462 1.0862001-.0644462 2.1724003.0644462 3.1947063.1288925 1.0862002.4511236 2.0446121 1.0311396 2.8752357.2577849.2555765.4511236.511153.7733547.7028354.3222312.2555765.7089085.3833648 1.1600321.4472589.7089085.0638941 1.3533707 0 1.9333867-.2555765.5155698-.2555765 1.0311396-.511153 1.4822632-.8945178.4511236-.3194706.8378009-.7028354 1.2244783-1.022306.3866773-.3194706.7089085-.5750472.9666934-.7667295l.0644462-.0638942c.7733547-.6389412 1.5467094-1.2778825 2.2556179-1.9168238.7089085-.6389412 1.4822632-1.3417766 2.1267254-2.044612.7089085-.6389413 1.417817-1.3417767 2.1267254-2.0446121.6444623-.7028354 1.2889245-1.4056708 1.997833-2.1085062.1288925-.1277882.2577849-.2555765.3222311-.3833647 0 .1916823.0644463.3194706.1288925.511153.2577849.8306236.9022471 1.7890355 2.577849 1.9807179 1.2244783.1277883 2.9000801-.2555765 5.0268056-1.2778825 2.0622792-.9584119 4.5112357-2.6196592 7.3468696-5.047636.5800161-.4472589 1.1600321-.9584119 1.6111557-1.469565.4511235-.4472588.9022471-.8306236 1.3533708-1.2778825.451123 0 .902247 0 1.288924-.0638941l1.224479-.2555765c.386677-.0638942.773354-.1277883 1.160032-.1916824h.644462c-.064446.4472589-.257785.8945178-.451124 1.2778825-.257785.5750472-.580016 1.1500943-.837801 1.7890356-.515569 1.1500943-1.031139 2.4279768-1.417816 3.7058593-.451124 1.2778826-.773355 2.7474475-.966694 4.2809065-.064446.4472589-.128892 1.0223061-.193339 1.5973532-.064446.6389413 0 1.2139884 0 1.7890356.064447.5750471.193339 1.1500942.451124 1.5973531.257785.5750472.773355.8945178 1.288925.8945178.257784.0638941.580016.0638941.8378-.0638941.322232-.0638942.451124-.2555765.51557-.3833648.064446-.1277882.128893-.3833647 0-.7028354-.193338-.3833647-.51557-.6389413-.902247-.5750471 0 0-.064446 0-.128892 0-.257785-.7028354-.386678-1.4695649-.257785-2.3001886.128892-1.022306.257785-1.9807179.451123-2.8113416.386678-1.5973531.773355-2.9391298 1.288925-4.0892241s.966693-2.2362944 1.353371-3.0669181c.386677-.8945177.708908-1.6612473.902247-2.3001885.193338-.7667296.193338-1.469565-.128893-2.0446121zm-2.577849-5.558789c-.064446.3194706-.193338.7028354-.386677.9584119-.128892.3194707-.322231.5750472-.51557.8306237-.257785.3194706-.451123.5750471-.580016.8945177-.451123.5750472-.837801 1.0862002-1.224478 1.5973532-.322231.4472589-.773355.8945178-1.2244782 1.2778825-.5155698 0-.9022472-.0638941-1.1600321-.2555765 0-.0638941-.0644462-.1277882-.1288924-.1916823 0-.0638942-.0644463-.1916824-.0644463-.3194707.0644463-.7028354.2577849-1.2778825.5800161-1.7890355.3222311-.5750472.7733547-1.1500943 1.2889249-1.6612473.451123-.511153.902247-.9584119 1.35337-1.3417767.451124-.3833647 1.03114-.6389413 1.611156-.8306236.128892 0 .257785-.0638942.451123 0 .128893.3194706.064447.5750471 0 .8306236zm-16.6915718 8.8812836c-.0644462.1916824-.2577849.4472589-.5155698.7028354-.1933387.2555765-.5155698.4472589-.837801.7028354-.1933386.1277883-.3222311.1916824-.5155698.2555765.1288925-.1277882.1933387-.3194706.1933387-.511153.1933387-.1916824.4511236-.3833647.7089085-.5750471.1933387-.1277883.4511236-.3194706.7089085-.4472589.1288924-.0638941.1933387-.1277883.2577849-.1277883zm-3.0289726-18.72097911c-.1933387.51115301-.3866774.9584119-.580016 1.34177666-.5155698.9584119-1.0955859 1.85292965-1.6756019 2.74744745-.580016.8306237-1.160032 1.6612473-1.7400481 2.4279768-.9022471.0638941-1.8689405.1277883-2.7711876.1916824-.6444623.0638941-1.3533708.0638941-1.997833.1277883.7089085-1.0223061 1.4822632-1.980718 2.3200641-3.003024 1.0955858-1.2778825 2.2556179-2.42797682 3.5445424-3.38638873.4511235-.31947063 1.0311396-.70283539 1.6756018-1.08620015.3866774-.25557651.7733547-.38336476 1.2244783-.38336476h.1933387c0 .38336476-.0644463.70283539-.1933387 1.02230603zm-13.0181375 14.37617851c.9666934-1.9168238 1.997833-3.8336476 3.0934188-5.6226831.8378009-.0638942 1.7400481-.1277883 2.577849-.1916824.6444623-.0638941 1.2889245-.0638941 1.8689406-.1277883-1.6111557 1.980718-3.2223113 3.9614359-4.9623594 5.8782597-1.4822632 1.6612473-3.0289726 3.2586005-4.575682 4.7281654.5800161-1.6612473 1.2889245-3.1947064 1.997833-4.6642713zm-37.0565794 35.269558c-.2577849-.3833647-.3222312-.8306236-.3222312-1.4056708 0-1.0862001.3866774-2.2362944 1.0955859-3.3224946.4511235-.7028354.9022471-1.4056708 1.4178169-2.044612.580016.0638941 1.0955858.1277882 1.6111556.2555765.2577849.0638941.5800161.1916824.9022472.3194706.5155698.2555765 1.0311396.1916824 1.4178169-.1916824l.1288925-.1277882v-.1916824c0-.3833648-.1933387-.7028354-.5155698-.8306236-.1933387-.0638942-.3866774-.1916824-.580016-.2555765-.5155698-.1916824-1.0955859-.3833648-1.7400481-.4472589 2.3845103-2.3640827 5.0912518-4.536483 7.9268857-6.517201 2.9645263-1.9807179 5.9934989-3.9614358 9.0869177-5.8782596.5800161 1.1500942.837801 2.4918709.7733547 4.02533-.0644462 1.7251414-.3222311 3.2586004-.9022471 4.6003771-.4511236 1.2139884-1.0955859 2.3640827-1.8689406 3.514177-.7733547 1.1500942-1.6756018 2.2362944-2.577849 3.1947063-.9666933 1.022306-1.9978329 1.9168238-3.0934188 2.6835533-1.0955858.8306237-2.1911716 1.4695649-3.2223112 2.0446121-.5155698.2555765-1.1600321.511153-1.8689406.8306236-.7089084.3194707-1.4822631.5750472-2.2556178.7028354-.7733547.1916824-1.6111557.2555765-2.3845104.3194707-.7733547 0-1.4822631-.1277883-2.1267254-.4472589-.3866773-.1277883-.6444622-.4472589-.9022471-.8306237zm-6.7024075-11.2453663c-.7089084-.0638941-1.2889245-.2555765-1.8044943-.5750471-.1288924-.0638942-.5155698-.3194707-.2577849-1.4056708.1933387-.7667295.7089085-1.5334591 1.417817-2.2362945.7733547-.7667295 1.6756018-1.533459 2.6422952-2.1724003.9666934-.7028354 1.997833-1.3417766 3.0289726-1.9168238.9666934-.511153 1.7400481-.9584119 2.4489566-1.3417766.5155698.4472588.9666933.9584119 1.3533707 1.4695649.4511236.511153.7733547 1.2139884.9666934 2.044612 0 .3833648 0 .7667296-.0644463 1.0862002-.0644462.2555765-.1288924.5750471-.2577849.8306236-.3222311.6389413-.7733547 1.2139884-1.4178169 1.7251415-.6444623.511153-1.417817 1.022306-2.3200641 1.4056707-.9022472.3833648-1.8689406.7028354-2.8356339.9584119-.7733547.1277883-1.8044943.1916824-2.9000802.1277883z"/><path d="m158.220597 23.9897888.123831.1308142.247662-.0654071c.557238-.1308142 1.052562-.4578498 1.362139-.9156996.185746-.3270355.495323-.5232569.8049-.7194782l.990646-.9811067c.123831-.1308143.309577-.2616285.557239-.3924427.371493-.2616285.557239-.6540711.495323-1.1119209-.061915-.3924427-.309577-.6540712-.619154-.7848854-.433408-.1308142-.681069 0-.8049.1308142-.309577.1962214-.681069.5232569-1.052562.9156996-.371492.3924427-.681069.6540712-.928731.9156996-.309577.2616285-.619154.588664-.928731.9811067-.185746.1308142-.309577.3270356-.495323.5232569-.123831.1962214-.309577.588664-.061916 1.177328l.123831.3270356h.185746z"/><path d="m200 28.1451555c-.064045-.3227656-.256181-.5164249-.448316-.6455311-.128091-.0645531-.384272-.1291063-.704498 0-.320226.1291062-.512361.1936593-.640452.3227655-.384271.1936593-.768542.5164249-1.088768.8391904-.896633.7100842-1.665175 1.3556153-2.241582 1.9365933-.576407.5164249-1.024723.9682966-1.47304 1.3556153-.384271.3227655-.704497.6455311-1.024723.8391904-.192136.1291062-.448316.2582124-.640452.3873186-.12809-.2582124-.192136-.645531-.192136-1.0328497-.064045-.7100842-.064045-1.4847215-.12809-2.1948057-.064045-.7746373-.12809-1.4847215-.320226-2.0656995-.256181-.9682966-.896633-1.226509-1.408995-1.2910622-.512361-.0645531-1.024723.1291063-1.537084.4518718-.448317.3227655-.896633.7100842-1.34495 1.0974029-.448316.4518717-.832587.9037435-1.216858 1.4201684-.384272.4518717-.704498.8391904-1.024724 1.1619559l-.064045.0645531c-.640452.8391904-1.216859 1.6783808-1.857311 2.5821244-.064045.0645531-.064045.1291062-.12809.1936593.064045-.2582124.192135-.5164249.256181-.7746373.384271-1.0974029.768542-2.1948057 1.152813-3.3567617 1.60113-1.1619559 3.010125-2.5175712 4.162938-4.0668458 1.216859-1.5492746 2.369673-3.0985492 3.586532-4.7769301.896633-1.226509 1.793265-2.5821243 2.689898-4.0022927.064045.0645531.128091.1936593.192136.2582124.448316.6455311 1.024723.6455311 1.216859.580978.448316-.0645531.768542-.3873187.768542-.7746373 0-.2582125 0-.580978-.192136-.8391904-.12809-.2582125-.25618-.4518718-.448316-.6455311s-.192136-.2582125-.192136-.2582125l-.064045-.1291062-.064045-.0645531c-.064045 0-.064045-.0645531-.12809-.0645531.896632-1.4847215 1.72922-2.969443 2.433717-4.5187176v-.0645531c.192136-.51642489.320226-1.16195598.576407-1.87204018.256181-.90374352.128091-1.67838083-.384271-2.32391192l-.064045-.0645531c-.320226-.25821244-.704497-.38731866-1.088769-.38731866-.256181 0-.576407.06455311-1.024723.19365933-.768542.25821243-1.408994.7100842-1.985401 1.29106218-.512362.51642487-1.024723 1.09740285-1.537085 1.67838083s-1.024723 1.22650906-1.47304 1.80748702c-.448316.580978-.896633 1.2265091-1.216859 1.742934-.25618.4518717-.576406.9037435-.832587 1.2910621l-.064045.0645531c-.192136 0-.384272 0-.576407 0-1.537085-.0645531-3.010125 0-4.419119 0-.832588.0645532-1.537085.0645532-2.113492.1291063.192136-.2582125.384271-.580978.576407-.8391904.384271-.580978.768542-1.161956 1.216859-1.8720402.320226-.580978.704497-1.16195596 1.024723-1.80748705.128091 0 .320226-.06455311.448317-.12910622.192135-.12910622.384271-.25821244.512361-.32276554l.064045-.06455311.064046-.06455311c.064045-.12910622.192135-.25821244.320226-.32276555.192135-.12910621.448316-.45187176.384271-1.09740285-.064045-.38731865-.320226-.90374352-.960678-1.22650907-.128091-.96829663-.832588-1.54927461-1.921356-1.54927461-.768543 0-1.537085.19365933-2.177537.64553109h-.064045c-.512362-.06455311-1.024724-.06455311-1.537085-.12910622-3.970803-.25821243-7.941605-.25821243-11.784317.06455311-3.458441.32276555-6.788792.64553109-9.927007 1.03284974.128091-.32276554.320226-.71008419.448317-1.09740285.320226-.7746373.640452-1.42016839.896633-2.06569948.064045-.19365933.192135-.38731865.320226-.64553109.192135-.38731865.25618-.7100842.192135-1.09740285-.064045-.25821243-.256181-.51642487-.512361-.7100842-.256181-.19365932-.576407-.32276554-.896633-.32276554s-.960678.12910622-1.216859.96829663c-.128091.45187176-.128091.90374353 0 1.29106218-.256181.64553109-.576407 1.35561529-.832588 2.06569948-.256181.64553109-.512361 1.29106218-.832587 1.93659327-4.6753.7100842-9.286555 1.4847215-13.705674 2.38846503-4.226983.90374352-8.453966 1.80748701-12.552859 2.77578371 0-.1291063-.064045-.1936594-.128091-.2582125l-.12809-.1291062c-.576407-.3873186-1.216859-.6455311-1.921356-.7100842s-1.344949-.0645531-2.049447.0645531c-.704497.0645531-1.408994.2582125-2.049446.4518718s-1.152814.4518717-1.665175.6455311c-.384271.1936593-.768543.4518717-1.088769.7100842-.320226.2582124-.704497.7100842-.576407 1.5492746v.0645531c.192136.5164249.576407.9037435 1.088769.9682966.384271.0645531.768542.1291062 1.152814.1291062 1.280904.0645532 2.561808-.0645531 3.714621-.3873186 1.152814-.2582124 2.241582-.5164249 3.20226-.7746373 4.355074-1.0328498 8.774193-2.0656995 13.065222-3.0339961 4.034847-.90374356 8.261831-1.67838086 12.616904-2.25935884-1.280904 2.77578364-2.753943 6.00343914-4.483164 9.61841324-1.857311 3.8731865-3.842712 8.0691386-5.828113 12.3941969s-3.970803 8.7146697-5.892159 13.039728c-1.921356 4.3896114-3.586531 8.5210103-4.995525 12.3296438-.128091.2582124-.256181.5809779-.320226.9682966-.128091.7100842.12809 1.0974028.384271 1.3556153l.064045.0645531h.12809c.128091.0645531.256181.0645531.384272.0645531.384271 0 .704497-.1291062.832587-.3227656.192136-.1936593.448317-.3873186.576407-.645531l.064045-.0645532c.064045-.1291062.256181-.3227655.384271-.4518717.256181-.1936593.512362-.580978.448317-1.161956 0-.3873186-.192136-.6455311-.512362-.7746373 1.537085-4.0022927 3.138215-7.9400324 4.80339-11.6841127 1.729221-3.8731865 3.522486-7.8754793 5.379797-11.8132189s3.650577-7.8754793 5.379797-11.8132189c1.665176-3.8086334 3.458441-7.68182 5.379797-11.5550065 2.113492-.32276555 4.355074-.58097798 6.596656-.83919042 2.369673-.25821243 4.80339-.38731865 7.301153-.51642487.640452-.06455311 1.665175-.06455311 3.010125-.12910622 1.344949-.06455311 2.753943-.06455311 4.226983 0h.640452c-1.216859.96829664-2.305627 2.1302526-3.266305 3.35676166-1.152814 1.48472155-2.241582 2.90488995-3.20226 4.26050515-2.113492.1291063-4.162939.3873187-6.27643.6455311-1.857311.2582125-3.778667.3873187-5.635978.5164249 0-.1936593-.064045-.3873187-.256181-.5164249l-.064045-.0645531-.12809-.0645531c-.256181-.0645531-.576407-.1291062-.960678-.1936593-.384272-.0645531-.768543-.0645531-1.088769 0-.384271.0645531-.704497.1291062-1.024723.3227655-.384271.2582125-.576407.580978-.576407 1.0328498 0 .7746373.384271 1.0974028.704497 1.2910621.320226.1936594.768543.3227656 1.216859.3873187h.064045.064045c2.433718-.1291062 4.803391-.3873187 6.980928-.7100842 1.85731-.3227655 3.842712-.580978 5.892158-.7746373-.960678 1.6783808-1.921356 3.4858679-2.753944 5.2933549-.960678 2.0011464-1.793265 4.131399-2.497762 6.4553109-.896633.3227655-1.857311.580978-2.94608.8391904-1.152813.2582125-2.305627.1936593-3.394395-.1291062 0-.3227655-.064046-.580978-.192136-.7746373l.256181-.5164249c.12809-.2582124.256181-.6455311.320226-1.0328497v-.1291062l-.064045-.1291063c-.128091-.1936593-.192136-.3873186-.320226-.5164248-.128091-.1936594-.448317-.3873187-.960679-.2582125l-.12809.0645531c-.384271.1936594-.640452.3227656-.768542.5164249-.448317.4518718-.896633.9682967-1.280904 1.5492746-.320226.580978-.704498 1.0974029-1.024724 1.6783809-.320226.6455311-.640452 1.2910621-.896632 1.9365932-.320226.7100842-.448317 1.4847215-.448317 2.3239119v.1291063c.128091.4518717.384271.7746373.704497 1.0328497l.448317.2582124h.12809c.768543 0 1.408995-.1936593 1.857311-.645531.384271-.3873187.704497-.7746374.960678-1.0974029.320226-.4518718.640452-.9037435.832588-1.4201684.12809-.3227655.256181-.7100842.384271-1.0974028 1.152814.2582124 2.369672.2582124 3.586531.0645531.896633-.1291063 1.665175-.3227656 2.369673-.580978-.192136.7746373-.448317 1.6138277-.640452 2.5821243-.256181 1.0328498-.384272 2.1302526-.448317 3.2276555-.064045 1.0974028-.064045 2.1948057.064045 3.2276554.128091 1.0974029.448317 2.0656995 1.024724 2.9048899.256181.2582125.448316.5164249.768542.7100842.320226.2582125.704497.3873187 1.152814.4518718.704497.0645531 1.344949 0 1.921356-.2582125.512361-.2582124 1.024723-.5164248 1.473039-.9037435.448317-.3227655.832588-.7100842 1.216859-1.0328497.384272-.3227656.704498-.580978.960678-.7746373l.064046-.0645531c.768542-.6455311 1.537084-1.2910622 2.241582-1.9365933.704497-.6455311 1.473039-1.3556153 2.113491-2.0656995.704498-.6455311 1.408995-1.3556153 2.113492-2.0656995.448316-.5164248.960678-1.0328497 1.408994-1.5492746-.12809.5164249-.320226.9682967-.448316 1.4201684-.12809.3873187-.256181.7746373-.320226 1.2265091-.12809.4518717-.192136.8391904-.256181 1.2910622-.064045.1936593-.064045.4518717-.12809.7100842-.064045.3227655-.128091.5809779-.128091.8391904 0 .3227655.064046.580978.192136.8391904.064045.1936593.320226.5164249.896633.5164249.320226 0 .704497-.1936594.960678-.5164249.192135-.2582124.448316-.6455311.768542-1.161956l1.088769-1.807487c.448316-.7100842 1.024723-1.5492746 1.665175-2.5175713.384271-.5164248.704497-.9682966 1.088768-1.4201684.384272-.4518717.704498-.9037435 1.088769-1.3556152.448316-.3873187.832587-.8391905 1.216859-1.2910622.25618-.2582125.576406-.5164249.960678-.6455311.12809.2582124.192135.6455311.192135 1.0328497.064045.7100842.064045 1.4201684.064045 2.1302526 0 .7746373.128091 1.4201684.320226 2.0656995.256181.9037435.832588 1.2265091 1.34495 1.3556153.576407.1291062 1.088768 0 1.60113-.3873187.384271-.2582124.704497-.5809779 1.024723-.8391904.320226-.3227655.576407-.580978.896633-.8391904l.832587-.7100842c.640452-.4518717 1.216859-1.0328497 1.793266-1.6138277.512362-.5164249 1.088769-1.0328497 1.729221-1.4201684.064045-.0645531.192135-.0645531.320226-.1291062.384271-.0645531.640452-.3227656.704497-.7100842v-.1291062zm-32.983279 12.9106217c-.576407-.4518717-.896633-1.1619559-.960678-2.1302526-.12809-1.0974028-.12809-2.1948057 0-3.3567616.12809-1.0328498.320226-2.0656995.576407-3.0985493.256181-.9682966.512361-1.8720401.704497-2.7757836 1.280904-.9682967 2.497763-2.0656995 3.586531-3.2276555 1.152814-1.226509 2.241582-2.388465 3.394396-3.6149741 1.60113-1.807487 2.882034-3.3567616 3.714622-4.5187176.832587-1.0974028 1.60113-2.0656995 2.369672-2.969443.640452 0 1.60113 0 2.753944-.0645531 1.344949-.0645531 2.753944-.0645531 4.226983 0h.320226c-1.280904 2.1948057-2.433717 4.5187176-3.394395 6.9071826-.832588 1.8720402-1.601131 3.9377397-2.369673 6.0034392-.576407.7100842-1.152814 1.3556153-1.72922 1.9365932-.896633 1.0328498-1.921356 2.0656995-2.94608 3.0985493-1.024723 1.0328497-2.113491 2.0656994-3.20226 3.0339961-1.088768.9682966-2.177537 1.8720401-3.266305 2.7757837-.448317.4518717-1.088769.9037435-1.793266 1.4201683-.640452.4518718-1.280904.6455311-1.985401.580978zm14.666351-34.21314766c.128091 0 .256181 0 .384271.06455311.512362.06455311.960678.12910621 1.34495.25821243-.192136.51642487-.384272.96829663-.576407 1.35561529-.512362.96829663-1.088769 1.87204013-1.665175 2.77578363-.576407.8391905-1.152814 1.6783809-1.729221 2.4530182-.896633.0645531-1.857311.1291062-2.753944.1936593-.640452.0645531-1.280904.0645531-1.985401.1291062.704497-1.0328497 1.47304-2.0011463 2.305627-3.0339961 1.088769-1.29106216 2.241583-2.45301812 3.522487-3.42131476.25618-.19365932.576406-.45187176 1.024723-.71008419zm10.887685 6.77807646c-.384272-.0645531-.832588-.0645531-1.280904-.1291063.448316-.7100841.960678-1.4847215 1.537084-2.2593588.640452-.9037435 1.34495-1.7429339 2.049447-2.51757121.640452-.64553108 1.216859-1.09740285 1.793265-1.42016839 0 .19365933 0 .38731865-.064045.58097798s-.064045.32276554-.12809.51642487c-.064045.32276554-.128091.58097798-.256181.77463731l-.320226.64553108c-.192136.51642486-.384271.96829666-.640452 1.42016836-.256181.4518718-.448316.9037436-.704497 1.3556153-.256181.3873187-.512362.8391904-.704497 1.2265091-.384272-.0645531-.768543-.1291062-1.280904-.1936593zm-5.764069 8.327351c.832588-1.8720401 1.729221-3.7440803 2.689899-5.5515674l.576407-.9682966c.448316 0 .896633.0645531 1.344949.1291062s.896633.1291062 1.280904.1936594c-1.024723 1.6783808-2.113492 3.2922085-3.20226 4.77693-1.280904 1.8074871-2.753944 3.550421-4.355074 5.1642487.640452-1.2910622 1.152814-2.5821243 1.665175-3.7440803zm-8.838237-6.3907578c-1.601131 2.0011464-3.202261 4.0022928-4.931481 5.938886-1.47304 1.6783809-3.010125 3.2922086-4.547209 4.7769301.576406-1.6138277 1.280904-3.1631023 1.985401-4.6478238.960678-1.9365933 1.985401-3.8731866 3.07417-5.6806736.832587-.0645531 1.72922-.1291062 2.561808-.1936593.640452-.0645532 1.216858-.1291063 1.857311-.1936594zm-21.839414 16.590149c.064045-.3227655.192135-.6455311.384271-.9682966.192135-.3227656.384271-.7100842.576407-1.0328498.064045.0645531.192135.0645531.25618.0645531-.12809.3227656-.25618.7100842-.512361 1.0974029-.256181.3227655-.448317.580978-.704497.8391904z"/></g></svg>